<svg width="14" height="14" viewBox="0 0 14 14" fill="none" xmlns="http://www.w3.org/2000/svg">
<path fill-rule="evenodd" clip-rule="evenodd" d="M5.73038 10.22L4.84788 10.6657C4.30752 9.97057 3.94744 8.98999 3.94744 7.72398C3.94744 7.20683 4.00172 6.49394 4.18152 5.99454L5.74879 5.2994L5.73038 10.22ZM9.56683 0.0042573V0.12899C10.2691 0.182246 10.8094 0.467683 10.8094 0.931109C10.8094 1.25205 10.5753 1.66222 9.87264 1.66222C9.31435 1.66222 8.39598 1.34128 7.53141 1.05631C6.5767 0.735368 5.67627 0.432179 4.91977 0.432179C3.44311 0.432179 2.32606 1.51974 2.32606 2.85676C2.32606 3.94431 3.1727 4.31898 3.51484 4.46146L3.53278 4.40774C3.31664 4.26525 3.1727 4.10502 3.1727 3.64112C3.1727 3.24917 3.46104 2.73202 4.21754 2.73202C4.90184 2.73202 5.80227 3.03521 6.99106 3.37391C8.0175 3.65934 9.11661 3.92656 9.7287 3.99804V6.36936L8.57626 7.31396L9.7287 8.295V11.5399C9.13455 11.8786 8.44978 11.9856 7.85562 11.9856C6.75698 11.9856 5.74847 11.6824 4.91977 10.7728L8.0359 9.27511V4.14052L4.23548 5.8167C4.63142 4.81744 5.36999 4.06904 6.18076 3.58787L6.16235 3.53368C3.91126 4.14052 1.85791 6.1909 1.85791 8.72293C1.85791 11.7539 4.30721 14 7.13499 14C10.1969 14 11.9982 11.6287 11.9623 9.11487H11.9081C11.4578 10.0777 10.7193 10.9868 9.87264 11.4684V8.295L11.0794 7.33218L9.87264 6.36936V3.99804C10.9897 3.99804 12.1421 3.26693 12.1421 1.85843C12.1421 0.396207 10.7372 -0.0494665 9.56683 0.0042573Z" fill="#204D81"/>
</svg>
