<svg width="14" height="14" viewBox="0 0 14 14" fill="none" xmlns="http://www.w3.org/2000/svg">
<path d="M4.68905 4.99264L6.99144 3.35093L13.0585 7.58411C13.3844 7.81152 13.6305 8.13753 13.7614 8.51521L13.8202 8.68494C13.9564 9.07814 13.9227 9.51109 13.7271 9.87789C13.6173 10.084 13.4607 10.2609 13.2702 10.3941L8.83213 13.4978C8.46797 13.7525 8.04913 13.9161 7.61009 13.9752C7.37914 14.0063 7.14525 14.0082 6.91385 13.9807L6.82029 13.9695C6.3522 13.9139 5.89978 13.7646 5.48947 13.5303L2.99612 12.1067L0.827661 10.5421C0.396135 10.2308 0.109555 9.75456 0.0345592 9.22426L0.0150704 9.08645C-0.0280591 8.78148 0.021903 8.47047 0.15829 8.19493C0.243594 8.02259 0.360668 7.86828 0.503233 7.74027L0.896878 7.38681L6.99144 11.7647L10.5127 9.02852L4.68905 4.99264Z" fill="#204D81" fill-opacity="0.69"/>
<path d="M9.23648 9.08978L6.92354 10.7163L0.883952 6.44323C0.559494 6.21368 0.315498 5.88606 0.187079 5.50752L0.13005 5.33942C-0.00408089 4.94405 0.0326045 4.50992 0.231132 4.14323C0.341675 3.93905 0.498093 3.76392 0.687815 3.6319L5.22261 0.476402C5.49652 0.285802 5.80325 0.148529 6.12704 0.0716389C6.51771 -0.021134 6.92404 -0.0238351 7.31588 0.0637359L7.38045 0.0781643C7.70572 0.150859 8.01653 0.278461 8.29979 0.455598L10.8513 2.05124L13.4023 3.78357C13.6633 3.96084 13.855 4.2245 13.9443 4.52916C13.9812 4.65508 14 4.78572 14 4.91704V5.00519C14 5.32661 13.9172 5.64249 13.7596 5.92175C13.6722 6.07678 13.563 6.21823 13.4354 6.3417L13.044 6.72065L6.97786 2.30269L3.43897 5.01562L9.23648 9.08978Z" fill="#204D81"/>
</svg>
