<svg width="14" height="14" viewBox="0 0 14 14" fill="none" xmlns="http://www.w3.org/2000/svg">
<path fill-rule="evenodd" clip-rule="evenodd" d="M13.6076 2.18308C11.273 1.16118 8.99239 0.836328 6.99993 0.851631H6.99966C5.00714 0.836328 2.72617 1.16118 0.391977 2.18308C0.113839 1.67681 0 1.36976 0 1.36976C2.55177 0.35579 4.94167 0.0087066 6.99966 0C9.05775 0.0087066 11.4478 0.355734 13.9999 1.36976C13.9999 1.36976 13.9196 1.61904 13.6076 2.18308ZM8.95917 2.93773L7.00061 14L5.02627 2.93612C3.17194 2.93745 2.58381 3.14304 2.49829 3.98225C2.49829 3.98225 1.24546 3.5133 0.614374 2.56087C3.07886 1.41383 5.55549 1.36205 5.55549 1.36205L6.99908 3.12791L8.44248 1.36232C8.44248 1.36232 10.9191 1.41405 13.3839 2.56109C12.7522 3.51352 11.4999 3.98247 11.4999 3.98247C11.4149 3.14332 10.826 2.93773 8.95917 2.93773Z" fill="#204D81"/>
</svg>
