<svg width="14" height="14" viewBox="0 0 14 14" fill="none" xmlns="http://www.w3.org/2000/svg">
<path d="M7.00001 12.4151C7.56943 12.4151 8.11833 12.3272 8.63387 12.1643L9.31241 13.609C8.58851 13.8623 7.81035 14 7.00001 14C3.13402 14 0 10.866 0 7C0 4.45431 1.35892 2.226 3.39092 1.00091L4.06946 2.44565C2.57466 3.40948 1.58491 5.08916 1.58491 7C1.58491 9.99067 4.00934 12.4151 7.00001 12.4151Z" fill="#204D81"/>
<path d="M7.00001 1.58491C6.39342 1.58491 5.81015 1.68464 5.26566 1.86861L4.58836 0.426532C5.3402 0.150616 6.15251 0 7.00001 0C10.866 0 14 3.13401 14 7C14 9.58339 12.6006 11.8399 10.5184 13.0528L9.84112 11.6108C11.3857 10.657 12.4151 8.9487 12.4151 7C12.4151 5.58746 11.8743 4.30124 10.9884 3.33712L8.3239 11.5611L6.34256 7.46678L4.7581 10.7686L3.04104 6.80643L3.70149 5.61782L4.82386 7.99507L6.34301 4.56102L7.92772 7.86293L9.58452 2.24029C8.81645 1.82235 7.93595 1.58491 7.00001 1.58491Z" fill="#204D81"/>
</svg>
